<mxfile host="app.diagrams.net" modified="2023-07-20T02:41:56.599Z" agent="Mozilla/5.0 (Windows NT 10.0; Win64; x64) AppleWebKit/537.36 (KHTML, like Gecko) Chrome/114.0.0.0 Safari/537.36" etag="KfKfWiyEmGZvkmvzJdMD" version="21.6.3" type="github">
  <diagram name="Page-1" id="3td5JxkXfDrMrJ53wT5U">
    <mxGraphModel dx="2261" dy="764" grid="1" gridSize="10" guides="1" tooltips="1" connect="1" arrows="1" fold="1" page="1" pageScale="1" pageWidth="827" pageHeight="1169" math="0" shadow="0">
      <root>
        <mxCell id="0" />
        <mxCell id="1" parent="0" />
        <mxCell id="Y6MA_SlT_S250u1S7EXK-8" style="edgeStyle=orthogonalEdgeStyle;rounded=0;orthogonalLoop=1;jettySize=auto;html=1;" edge="1" parent="1" source="Y6MA_SlT_S250u1S7EXK-2" target="Y6MA_SlT_S250u1S7EXK-6">
          <mxGeometry relative="1" as="geometry" />
        </mxCell>
        <mxCell id="Y6MA_SlT_S250u1S7EXK-2" value="未存入" style="ellipse;whiteSpace=wrap;html=1;aspect=fixed;" vertex="1" parent="1">
          <mxGeometry x="180" y="260" width="80" height="80" as="geometry" />
        </mxCell>
        <mxCell id="Y6MA_SlT_S250u1S7EXK-4" style="edgeStyle=orthogonalEdgeStyle;rounded=0;orthogonalLoop=1;jettySize=auto;html=1;" edge="1" parent="1" source="Y6MA_SlT_S250u1S7EXK-3" target="Y6MA_SlT_S250u1S7EXK-2">
          <mxGeometry relative="1" as="geometry" />
        </mxCell>
        <mxCell id="Y6MA_SlT_S250u1S7EXK-3" value="开始" style="text;html=1;strokeColor=none;fillColor=none;align=center;verticalAlign=middle;whiteSpace=wrap;rounded=0;fontSize=22;" vertex="1" parent="1">
          <mxGeometry x="-30" y="285" width="60" height="30" as="geometry" />
        </mxCell>
        <mxCell id="Y6MA_SlT_S250u1S7EXK-5" value="经理录入保存" style="text;html=1;strokeColor=none;fillColor=none;align=center;verticalAlign=middle;whiteSpace=wrap;rounded=0;" vertex="1" parent="1">
          <mxGeometry x="50" y="260" width="110" height="30" as="geometry" />
        </mxCell>
        <mxCell id="Y6MA_SlT_S250u1S7EXK-10" style="edgeStyle=orthogonalEdgeStyle;rounded=0;orthogonalLoop=1;jettySize=auto;html=1;" edge="1" parent="1" source="Y6MA_SlT_S250u1S7EXK-6" target="Y6MA_SlT_S250u1S7EXK-7">
          <mxGeometry relative="1" as="geometry" />
        </mxCell>
        <mxCell id="Y6MA_SlT_S250u1S7EXK-6" value="未到期" style="ellipse;whiteSpace=wrap;html=1;aspect=fixed;" vertex="1" parent="1">
          <mxGeometry x="390" y="260" width="80" height="80" as="geometry" />
        </mxCell>
        <mxCell id="Y6MA_SlT_S250u1S7EXK-7" value="到期未兑付" style="ellipse;whiteSpace=wrap;html=1;aspect=fixed;" vertex="1" parent="1">
          <mxGeometry x="680" y="260" width="80" height="80" as="geometry" />
        </mxCell>
        <mxCell id="Y6MA_SlT_S250u1S7EXK-9" value="运营出款确认" style="text;html=1;strokeColor=none;fillColor=none;align=center;verticalAlign=middle;whiteSpace=wrap;rounded=0;" vertex="1" parent="1">
          <mxGeometry x="280" y="260" width="90" height="30" as="geometry" />
        </mxCell>
        <mxCell id="Y6MA_SlT_S250u1S7EXK-11" value="定时任务每天自动更新兑付日为当天的存款" style="text;html=1;strokeColor=none;fillColor=none;align=center;verticalAlign=middle;whiteSpace=wrap;rounded=0;" vertex="1" parent="1">
          <mxGeometry x="510" y="260" width="130" height="30" as="geometry" />
        </mxCell>
      </root>
    </mxGraphModel>
  </diagram>
</mxfile>
